<svg xmlns="http://www.w3.org/2000/svg" viewBox="0 0 512 512">
  <path d="M256 32c-64 0-128 32-172.8 83.2-19.2 22.4-32 48-38.4 73.6-6.4 25.6-3.2 54.4 6.4 80s25.6 48 48 64c22.4 16 48 25.6 73.6 28.8 12.8 1.6 25.6 1.6 38.4 0v-48h32v48c12.8 1.6 25.6 1.6 38.4 0 25.6-3.2 51.2-12.8 73.6-28.8 22.4-16 38.4-38.4 48-64s12.8-54.4 6.4-80c-6.4-25.6-19.2-51.2-38.4-73.6C384 64 320 32 256 32zM496 384h-22.1c-13.8-31.4-44.5-51.4-78.5-51.4H116.6c-34 0-64.7 20-78.5 51.4H8c-4.4 0-8 3.6-8 8v16c0 4.4 3.6 8 8 8h496c4.4 0 8-3.6 8-8v-16c0-4.4-3.6-8-8-8z"/>
</svg>
